<?xml version="1.0" encoding="utf-8"?>
<!-- Generator: Adobe Illustrator 24.0.0, SVG Export Plug-In . SVG Version: 6.00 Build 0)  -->
<svg version="1.1" id="Layer_1" xmlns="http://www.w3.org/2000/svg" xmlns:xlink="http://www.w3.org/1999/xlink" x="0px" y="0px"
	 viewBox="0 0 24 24" style="enable-background:new 0 0 24 24;" xml:space="preserve">
<style type="text/css">
	.st0{fill:#FFFFFF;stroke:#FFFFFF;stroke-miterlimit:10;}
</style>
<path class="st0" d="M12,22c1.1,0,2-0.9,2-2h-4C10,21.1,10.9,22,12,22z M18.1,15.9v-5.1c0-3.1-1.7-5.8-4.6-6.5V3.5
	C13.5,2.7,12.9,2,12,2c-0.9,0-1.5,0.7-1.5,1.5v0.7c-2.9,0.7-4.6,3.3-4.6,6.5v5.1l-2.1,2v1h16.4v-1L18.1,15.9z M12,5.6
	c2.7,0,4.6,2.2,4.6,5.1v6.7H7.4v-6.7C7.4,7.8,9.3,5.6,12,5.6z"/>
</svg>
