<?xml version="1.0" encoding="utf-8"?>
<!-- Generator: Adobe Illustrator 24.0.0, SVG Export Plug-In . SVG Version: 6.00 Build 0)  -->
<svg version="1.1" id="Layer_1" xmlns="http://www.w3.org/2000/svg" xmlns:xlink="http://www.w3.org/1999/xlink" x="0px" y="0px"
	 viewBox="0 0 24 24" style="enable-background:new 0 0 24 24;" xml:space="preserve">
<style type="text/css">
	.st0{fill:#FFFFFF;stroke:#FFFFFF;stroke-miterlimit:10;}
</style>
<path class="st0" d="M3,17.6c0-1.5,1.2-2.7,2.7-2.7s2.7,1.2,2.7,2.7s-1.2,2.7-2.7,2.7C4.2,20.3,3,19.1,3,17.6z M4.4,17.6
	c0,0.7,0.6,1.4,1.3,1.4c0.7,0,1.4-0.6,1.4-1.3c0,0,0,0,0,0c0-0.7-0.6-1.3-1.4-1.3C5,16.2,4.4,16.8,4.4,17.6z M18.1,17.6
	c0-1.5,1.2-2.7,2.7-2.7s2.7,1.2,2.7,2.7c0,1.5-1.2,2.7-2.7,2.7c0,0,0,0,0,0C19.3,20.3,18.1,19.1,18.1,17.6z M19.4,17.6
	c0,0.7,0.6,1.4,1.4,1.4s1.4-0.6,1.4-1.4l0,0c0-0.7-0.6-1.4-1.4-1.4S19.4,16.8,19.4,17.6z"/>
<path class="st0" d="M0.5,17.3c0,0.4,0.3,0.8,0.7,0.9c0.4,0,0.8-0.3,0.9-0.7c0-0.1,0-0.1,0-0.2c0.1-2,1.8-3.6,3.9-3.5
	c1.9,0.1,3.4,1.6,3.5,3.5c0,0.4,0.4,0.8,0.8,0.8h6c0.4,0,0.8-0.3,0.8-0.8c0-2,1.6-3.7,3.7-3.7c0.4,0,0.7,0.1,1.1,0.2
	c0.4,0.2,0.9,0,1.1-0.4c0.1-0.3,0-0.6-0.2-0.8l-5.5-8.3c-0.1-0.1-0.2-0.2-0.3-0.3C16.7,4,16.6,4,16.5,4h-2.7C13.3,4,13,4.3,13,4.8
	c0,0,0,0,0,0c0,0.4,0.4,0.8,0.8,0.8h1.9l2.1,7.4c-0.6,0.4-1.1,0.9-1.5,1.5H11v-3h1c0.4,0,0.8-0.3,0.8-0.7c0,0,0,0,0,0v-0.6
	c0-0.4-0.3-0.8-0.8-0.8c0,0,0,0,0,0H2.5c-0.4,0-0.8,0.3-0.8,0.8v0.6c0,0.4,0.3,0.8,0.8,0.8h1.9v0.7C2.1,12.9,0.5,14.9,0.5,17.3z"/>
<path class="st0" d="M8.7,8H2.5C2.1,8,1.7,7.7,1.6,7.3c0-0.4,0.3-0.8,0.7-0.9c0.1,0,0.1,0,0.2,0h6.2c0.4,0,0.8,0.3,0.9,0.7
	C9.6,7.6,9.3,8,8.9,8C8.8,8,8.7,8,8.7,8z M7.7,5.2H1.5C1,5.3,0.6,5,0.6,4.6c0-0.4,0.3-0.8,0.7-0.9c0.1,0,0.1,0,0.2,0h6.2
	c0.4,0,0.8,0.3,0.9,0.7c0,0.4-0.3,0.8-0.7,0.9C7.8,5.2,7.7,5.2,7.7,5.2z"/>
</svg>
